# xmcd
#
# Track frame offsets:
#	182
#	15947
#	29095
#	43272
#	57825
#	71672
#	84150
#	101382
#	117360
#	131967
#
# Disc length: 1906 seconds
#
# Revision: 3
# Processed by: cddbd v1.5.1PL2 Copyright (c) Steve Scherf et al.
# Submitted via: dBpowerAMP V4.0
#
DISCID=8307700a
DTITLE=Tracy Lawrence - Alibis
DYEAR=1993
DGENRE=Country
TTITLE0=I Threw The Rest Away
TTITLE1=Can't Break It To My Heart
TTITLE2=We Don't Love Here Anymore
TTITLE3=Crying Ain't Dying
TTITLE4=Alibis
TTITLE5=My Second Home
TTITLE6=Don't Talk To Me That Way
TTITLE7=It Only Takes One Bar (To Make A Prison)
TTITLE8=Back To Back
TTITLE9=If The Good Die Young
EXTD=Atlantic Recording
EXTT0=
EXTT1=
EXTT2=
EXTT3=
EXTT4=
EXTT5=
EXTT6=
EXTT7=
EXTT8=
EXTT9=
PLAYORDER=
